<mxfile host="app.diagrams.net" modified="2022-01-05T06:16:30.038Z" agent="5.0 (Macintosh; Intel Mac OS X 10_15_7) AppleWebKit/537.36 (KHTML, like Gecko) Chrome/96.0.4664.110 Safari/537.36" etag="4BNkKScsl8Znp4u7LqDb" version="16.1.0" type="github">
  <diagram id="U9XBmQG3W3s0wvWKvl6n" name="Page-1">
    <mxGraphModel dx="1298" dy="834" grid="1" gridSize="10" guides="1" tooltips="1" connect="1" arrows="1" fold="1" page="1" pageScale="1" pageWidth="1169" pageHeight="827" math="0" shadow="0">
      <root>
        <mxCell id="0" />
        <mxCell id="1" parent="0" />
        <mxCell id="127NM03Vpmz33mGlXqdl-1" value="" style="endArrow=none;html=1;rounded=0;startArrow=none;" edge="1" parent="1" source="127NM03Vpmz33mGlXqdl-2">
          <mxGeometry width="50" height="50" relative="1" as="geometry">
            <mxPoint x="570" y="275" as="sourcePoint" />
            <mxPoint x="570" y="50" as="targetPoint" />
          </mxGeometry>
        </mxCell>
        <mxCell id="127NM03Vpmz33mGlXqdl-2" value="" style="ellipse;whiteSpace=wrap;html=1;aspect=fixed;" vertex="1" parent="1">
          <mxGeometry x="565" y="98" width="10" height="10" as="geometry" />
        </mxCell>
        <mxCell id="127NM03Vpmz33mGlXqdl-3" value="" style="endArrow=none;html=1;rounded=0;startArrow=none;" edge="1" parent="1" source="127NM03Vpmz33mGlXqdl-11" target="127NM03Vpmz33mGlXqdl-2">
          <mxGeometry width="50" height="50" relative="1" as="geometry">
            <mxPoint x="570" y="275" as="sourcePoint" />
            <mxPoint x="570" y="75" as="targetPoint" />
          </mxGeometry>
        </mxCell>
        <mxCell id="127NM03Vpmz33mGlXqdl-4" value="" style="endArrow=none;html=1;rounded=0;entryX=0;entryY=0.5;entryDx=0;entryDy=0;" edge="1" parent="1">
          <mxGeometry width="50" height="50" relative="1" as="geometry">
            <mxPoint x="240" y="103" as="sourcePoint" />
            <mxPoint x="565" y="103" as="targetPoint" />
          </mxGeometry>
        </mxCell>
        <mxCell id="127NM03Vpmz33mGlXqdl-7" value="04.30" style="rounded=1;whiteSpace=wrap;html=1;" vertex="1" parent="1">
          <mxGeometry x="114" y="83" width="120" height="40" as="geometry" />
        </mxCell>
        <mxCell id="127NM03Vpmz33mGlXqdl-9" value="&lt;font style=&quot;font-size: 13px&quot;&gt;&lt;b&gt;屏联网&lt;/b&gt; -&amp;nbsp;&lt;span style=&quot;font-size: 12px ; font-family: &amp;#34;larkhacksafarifont&amp;#34; , &amp;#34;larkemojifont&amp;#34; , &amp;#34;larkchinesequote&amp;#34; , &amp;#34;blinkmacsystemfont&amp;#34; , &amp;#34;helvetica neue&amp;#34; , &amp;#34;arial&amp;#34; , &amp;#34;segoe ui&amp;#34; , &amp;#34;pingfang sc&amp;#34; , &amp;#34;microsoft yahei&amp;#34; , &amp;#34;hiragino sans gb&amp;#34; , sans-serif , &amp;#34;apple color emoji&amp;#34; , &amp;#34;segoe ui emoji&amp;#34; , &amp;#34;segoe ui symbol&amp;#34; , &amp;#34;noto color emoji&amp;#34;&quot;&gt;c2媒体发布&lt;br&gt;&lt;/span&gt;&lt;span style=&quot;font-family: &amp;#34;larkhacksafarifont&amp;#34; , &amp;#34;larkemojifont&amp;#34; , &amp;#34;larkchinesequote&amp;#34; , &amp;#34;blinkmacsystemfont&amp;#34; , &amp;#34;helvetica neue&amp;#34; , &amp;#34;arial&amp;#34; , &amp;#34;segoe ui&amp;#34; , &amp;#34;pingfang sc&amp;#34; , &amp;#34;microsoft yahei&amp;#34; , &amp;#34;hiragino sans gb&amp;#34; , sans-serif , &amp;#34;apple color emoji&amp;#34; , &amp;#34;segoe ui emoji&amp;#34; , &amp;#34;segoe ui symbol&amp;#34; , &amp;#34;noto color emoji&amp;#34; ; font-size: 12px&quot;&gt;完成了c2媒体发布上线&lt;/span&gt;&lt;span style=&quot;font-size: 12px ; font-family: &amp;#34;larkhacksafarifont&amp;#34; , &amp;#34;larkemojifont&amp;#34; , &amp;#34;larkchinesequote&amp;#34; , &amp;#34;blinkmacsystemfont&amp;#34; , &amp;#34;helvetica neue&amp;#34; , &amp;#34;arial&amp;#34; , &amp;#34;segoe ui&amp;#34; , &amp;#34;pingfang sc&amp;#34; , &amp;#34;microsoft yahei&amp;#34; , &amp;#34;hiragino sans gb&amp;#34; , sans-serif , &amp;#34;apple color emoji&amp;#34; , &amp;#34;segoe ui emoji&amp;#34; , &amp;#34;segoe ui symbol&amp;#34; , &amp;#34;noto color emoji&amp;#34;&quot;&gt;&lt;br&gt;&lt;/span&gt;&lt;/font&gt;" style="text;html=1;strokeColor=none;fillColor=none;align=left;verticalAlign=top;whiteSpace=wrap;rounded=0;" vertex="1" parent="1">
          <mxGeometry x="254" y="43" width="290" height="40" as="geometry" />
        </mxCell>
        <mxCell id="127NM03Vpmz33mGlXqdl-11" value="" style="ellipse;whiteSpace=wrap;html=1;aspect=fixed;" vertex="1" parent="1">
          <mxGeometry x="565" y="124" width="10" height="10" as="geometry" />
        </mxCell>
        <mxCell id="127NM03Vpmz33mGlXqdl-12" value="" style="endArrow=none;html=1;rounded=0;" edge="1" parent="1" target="127NM03Vpmz33mGlXqdl-11">
          <mxGeometry width="50" height="50" relative="1" as="geometry">
            <mxPoint x="570" y="1171" as="sourcePoint" />
            <mxPoint x="570" y="108" as="targetPoint" />
          </mxGeometry>
        </mxCell>
        <mxCell id="127NM03Vpmz33mGlXqdl-13" value="" style="endArrow=none;html=1;rounded=0;entryX=0;entryY=0.5;entryDx=0;entryDy=0;" edge="1" parent="1">
          <mxGeometry width="50" height="50" relative="1" as="geometry">
            <mxPoint x="575" y="129" as="sourcePoint" />
            <mxPoint x="900" y="129" as="targetPoint" />
          </mxGeometry>
        </mxCell>
        <mxCell id="127NM03Vpmz33mGlXqdl-14" value="05.05" style="rounded=1;whiteSpace=wrap;html=1;" vertex="1" parent="1">
          <mxGeometry x="910" y="107" width="120" height="40" as="geometry" />
        </mxCell>
        <mxCell id="127NM03Vpmz33mGlXqdl-15" value="&lt;font style=&quot;font-size: 12px&quot;&gt;&lt;b style=&quot;font-size: 13px&quot;&gt;北京总部&lt;/b&gt;&lt;font style=&quot;font-size: 12px&quot;&gt; - &lt;font style=&quot;font-size: 12px&quot;&gt;总部通行等&lt;/font&gt;&lt;br&gt;&lt;/font&gt;&lt;/font&gt;&lt;div id=&quot;_rWEobG3h&quot; class=&quot;editor-block text-block block-align-center hover focused&quot;&gt;&lt;div class=&quot;block-content text-element&quot;&gt;&lt;span class=&quot;&quot; style=&quot;font-family: &amp;#34;larkhacksafarifont&amp;#34; , &amp;#34;larkemojifont&amp;#34; , &amp;#34;larkchinesequote&amp;#34; , &amp;#34;blinkmacsystemfont&amp;#34; , &amp;#34;helvetica neue&amp;#34; , &amp;#34;arial&amp;#34; , &amp;#34;segoe ui&amp;#34; , &amp;#34;pingfang sc&amp;#34; , &amp;#34;microsoft yahei&amp;#34; , &amp;#34;hiragino sans gb&amp;#34; , sans-serif , &amp;#34;apple color emoji&amp;#34; , &amp;#34;segoe ui emoji&amp;#34; , &amp;#34;segoe ui symbol&amp;#34; , &amp;#34;noto color emoji&amp;#34;&quot;&gt;&lt;font style=&quot;font-size: 12px&quot;&gt;&lt;div id=&quot;_omE1CHAQ&quot; class=&quot;editor-block text-block focused hover&quot;&gt;&lt;div class=&quot;block-content text-element&quot;&gt;&lt;span&gt;完成了总部通行、总部食堂、卫生间、总部大屏等研发交付并保证稳定运行，保障了总部按时开业和智能化体验&lt;/span&gt;&lt;br&gt;&lt;/div&gt;&lt;/div&gt;&lt;/font&gt;&lt;/span&gt;&lt;/div&gt;&lt;/div&gt;" style="text;html=1;strokeColor=none;fillColor=none;align=left;verticalAlign=top;whiteSpace=wrap;rounded=0;" vertex="1" parent="1">
          <mxGeometry x="585" y="54" width="290" height="70" as="geometry" />
        </mxCell>
        <mxCell id="127NM03Vpmz33mGlXqdl-17" value="" style="ellipse;whiteSpace=wrap;html=1;aspect=fixed;" vertex="1" parent="1">
          <mxGeometry x="565" y="218" width="10" height="10" as="geometry" />
        </mxCell>
        <mxCell id="127NM03Vpmz33mGlXqdl-18" value="" style="endArrow=none;html=1;rounded=0;entryX=0;entryY=0.5;entryDx=0;entryDy=0;" edge="1" parent="1" target="127NM03Vpmz33mGlXqdl-17">
          <mxGeometry width="50" height="50" relative="1" as="geometry">
            <mxPoint x="240" y="223" as="sourcePoint" />
            <mxPoint x="550" y="223" as="targetPoint" />
          </mxGeometry>
        </mxCell>
        <mxCell id="127NM03Vpmz33mGlXqdl-19" value="06.30" style="rounded=1;whiteSpace=wrap;html=1;" vertex="1" parent="1">
          <mxGeometry x="114" y="203" width="120" height="40" as="geometry" />
        </mxCell>
        <mxCell id="127NM03Vpmz33mGlXqdl-20" value="&lt;font style=&quot;font-size: 13px&quot;&gt;&lt;b&gt;云开&lt;br&gt;&lt;/b&gt;&lt;div id=&quot;_cfNobIR1&quot; class=&quot;editor-block text-block focused hover&quot;&gt;&lt;div class=&quot;block-content text-element&quot;&gt;&lt;span class=&quot;&quot; style=&quot;font-size: 12px&quot;&gt;完成了与IoT人行、车行数据同空间主数据和业务工单数据的融合，形成基于空间维度的丰富标签体系，结合C4增值业务形成客群智能模型，辅助业务进行精准客户运营&lt;/span&gt;&lt;/div&gt;&lt;/div&gt;&lt;/font&gt;" style="text;html=1;strokeColor=none;fillColor=none;align=left;verticalAlign=top;whiteSpace=wrap;rounded=0;" vertex="1" parent="1">
          <mxGeometry x="254" y="123" width="290" height="90" as="geometry" />
        </mxCell>
        <mxCell id="127NM03Vpmz33mGlXqdl-21" value="" style="ellipse;whiteSpace=wrap;html=1;aspect=fixed;" vertex="1" parent="1">
          <mxGeometry x="565" y="407" width="10" height="10" as="geometry" />
        </mxCell>
        <mxCell id="127NM03Vpmz33mGlXqdl-22" value="" style="endArrow=none;html=1;rounded=0;entryX=0;entryY=0.5;entryDx=0;entryDy=0;" edge="1" parent="1">
          <mxGeometry width="50" height="50" relative="1" as="geometry">
            <mxPoint x="575" y="412" as="sourcePoint" />
            <mxPoint x="900" y="412" as="targetPoint" />
          </mxGeometry>
        </mxCell>
        <mxCell id="127NM03Vpmz33mGlXqdl-23" value="09.30" style="rounded=1;whiteSpace=wrap;html=1;" vertex="1" parent="1">
          <mxGeometry x="910" y="390" width="120" height="40" as="geometry" />
        </mxCell>
        <mxCell id="127NM03Vpmz33mGlXqdl-24" value="&lt;font&gt;&lt;font style=&quot;font-size: 13px&quot;&gt;&lt;b&gt;IBMS&lt;/b&gt;&lt;/font&gt;&lt;font style=&quot;font-size: 12px&quot;&gt; - IBMS2.0&lt;br&gt;&lt;/font&gt;&lt;/font&gt;&lt;div id=&quot;_rWEobG3h&quot; class=&quot;editor-block text-block block-align-center hover focused&quot;&gt;&lt;div class=&quot;block-content text-element&quot;&gt;&lt;span class=&quot;&quot;&gt;&lt;font&gt;&lt;div id=&quot;_omE1CHAQ&quot; class=&quot;editor-block text-block focused hover&quot;&gt;&lt;div class=&quot;block-content text-element&quot;&gt;&lt;div id=&quot;_SmjxxDcZ&quot; class=&quot;editor-block text-block focused hover&quot;&gt;&lt;div class=&quot;block-content text-element&quot; style=&quot;font-family: &amp;#34;larkhacksafarifont&amp;#34; , &amp;#34;larkemojifont&amp;#34; , &amp;#34;larkchinesequote&amp;#34; , &amp;#34;blinkmacsystemfont&amp;#34; , &amp;#34;helvetica neue&amp;#34; , &amp;#34;arial&amp;#34; , &amp;#34;segoe ui&amp;#34; , &amp;#34;pingfang sc&amp;#34; , &amp;#34;microsoft yahei&amp;#34; , &amp;#34;hiragino sans gb&amp;#34; , sans-serif , &amp;#34;apple color emoji&amp;#34; , &amp;#34;segoe ui emoji&amp;#34; , &amp;#34;segoe ui symbol&amp;#34; , &amp;#34;noto color emoji&amp;#34; ; font-size: 12px&quot;&gt;&lt;span class=&quot;&quot; style=&quot;font-family: &amp;#34;larkhacksafarifont&amp;#34; , &amp;#34;larkemojifont&amp;#34; , &amp;#34;larkchinesequote&amp;#34; , &amp;#34;blinkmacsystemfont&amp;#34; , &amp;#34;helvetica neue&amp;#34; , &amp;#34;arial&amp;#34; , &amp;#34;segoe ui&amp;#34; , &amp;#34;pingfang sc&amp;#34; , &amp;#34;microsoft yahei&amp;#34; , &amp;#34;hiragino sans gb&amp;#34; , sans-serif , &amp;#34;apple color emoji&amp;#34; , &amp;#34;segoe ui emoji&amp;#34; , &amp;#34;segoe ui symbol&amp;#34; , &amp;#34;noto color emoji&amp;#34;&quot;&gt;完成了3M接入&lt;/span&gt;&lt;span class=&quot;&quot;&gt;、&lt;/span&gt;&lt;span class=&quot;&quot; style=&quot;font-family: &amp;#34;larkhacksafarifont&amp;#34; , &amp;#34;larkemojifont&amp;#34; , &amp;#34;larkchinesequote&amp;#34; , &amp;#34;blinkmacsystemfont&amp;#34; , &amp;#34;helvetica neue&amp;#34; , &amp;#34;arial&amp;#34; , &amp;#34;segoe ui&amp;#34; , &amp;#34;pingfang sc&amp;#34; , &amp;#34;microsoft yahei&amp;#34; , &amp;#34;hiragino sans gb&amp;#34; , sans-serif , &amp;#34;apple color emoji&amp;#34; , &amp;#34;segoe ui emoji&amp;#34; , &amp;#34;segoe ui symbol&amp;#34; , &amp;#34;noto color emoji&amp;#34;&quot;&gt;模式控制&lt;/span&gt;&lt;span class=&quot;&quot;&gt;、&lt;/span&gt;&lt;span class=&quot;&quot; style=&quot;font-family: &amp;#34;larkhacksafarifont&amp;#34; , &amp;#34;larkemojifont&amp;#34; , &amp;#34;larkchinesequote&amp;#34; , &amp;#34;blinkmacsystemfont&amp;#34; , &amp;#34;helvetica neue&amp;#34; , &amp;#34;arial&amp;#34; , &amp;#34;segoe ui&amp;#34; , &amp;#34;pingfang sc&amp;#34; , &amp;#34;microsoft yahei&amp;#34; , &amp;#34;hiragino sans gb&amp;#34; , sans-serif , &amp;#34;apple color emoji&amp;#34; , &amp;#34;segoe ui emoji&amp;#34; , &amp;#34;segoe ui symbol&amp;#34; , &amp;#34;noto color emoji&amp;#34;&quot;&gt;逻辑报警自动下发&lt;/span&gt;&lt;span class=&quot;&quot;&gt;、&lt;/span&gt;&lt;span class=&quot;&quot; style=&quot;font-family: &amp;#34;larkhacksafarifont&amp;#34; , &amp;#34;larkemojifont&amp;#34; , &amp;#34;larkchinesequote&amp;#34; , &amp;#34;blinkmacsystemfont&amp;#34; , &amp;#34;helvetica neue&amp;#34; , &amp;#34;arial&amp;#34; , &amp;#34;segoe ui&amp;#34; , &amp;#34;pingfang sc&amp;#34; , &amp;#34;microsoft yahei&amp;#34; , &amp;#34;hiragino sans gb&amp;#34; , sans-serif , &amp;#34;apple color emoji&amp;#34; , &amp;#34;segoe ui emoji&amp;#34; , &amp;#34;segoe ui symbol&amp;#34; , &amp;#34;noto color emoji&amp;#34;&quot;&gt;相对时间设置等功能, 赋能C2航道&lt;/span&gt;&lt;/div&gt;&lt;div class=&quot;block-content text-element&quot; style=&quot;font-family: &amp;#34;larkhacksafarifont&amp;#34; , &amp;#34;larkemojifont&amp;#34; , &amp;#34;larkchinesequote&amp;#34; , &amp;#34;blinkmacsystemfont&amp;#34; , &amp;#34;helvetica neue&amp;#34; , &amp;#34;arial&amp;#34; , &amp;#34;segoe ui&amp;#34; , &amp;#34;pingfang sc&amp;#34; , &amp;#34;microsoft yahei&amp;#34; , &amp;#34;hiragino sans gb&amp;#34; , sans-serif , &amp;#34;apple color emoji&amp;#34; , &amp;#34;segoe ui emoji&amp;#34; , &amp;#34;segoe ui symbol&amp;#34; , &amp;#34;noto color emoji&amp;#34; ; font-size: 12px&quot;&gt;&lt;span class=&quot;&quot; style=&quot;font-family: &amp;#34;larkhacksafarifont&amp;#34; , &amp;#34;larkemojifont&amp;#34; , &amp;#34;larkchinesequote&amp;#34; , &amp;#34;blinkmacsystemfont&amp;#34; , &amp;#34;helvetica neue&amp;#34; , &amp;#34;arial&amp;#34; , &amp;#34;segoe ui&amp;#34; , &amp;#34;pingfang sc&amp;#34; , &amp;#34;microsoft yahei&amp;#34; , &amp;#34;hiragino sans gb&amp;#34; , sans-serif , &amp;#34;apple color emoji&amp;#34; , &amp;#34;segoe ui emoji&amp;#34; , &amp;#34;segoe ui symbol&amp;#34; , &amp;#34;noto color emoji&amp;#34;&quot;&gt;&lt;br&gt;&lt;/span&gt;&lt;/div&gt;&lt;div class=&quot;block-content text-element&quot; style=&quot;font-family: &amp;#34;larkhacksafarifont&amp;#34; , &amp;#34;larkemojifont&amp;#34; , &amp;#34;larkchinesequote&amp;#34; , &amp;#34;blinkmacsystemfont&amp;#34; , &amp;#34;helvetica neue&amp;#34; , &amp;#34;arial&amp;#34; , &amp;#34;segoe ui&amp;#34; , &amp;#34;pingfang sc&amp;#34; , &amp;#34;microsoft yahei&amp;#34; , &amp;#34;hiragino sans gb&amp;#34; , sans-serif , &amp;#34;apple color emoji&amp;#34; , &amp;#34;segoe ui emoji&amp;#34; , &amp;#34;segoe ui symbol&amp;#34; , &amp;#34;noto color emoji&amp;#34;&quot;&gt;&lt;span class=&quot;&quot; style=&quot;font-family: &amp;#34;larkhacksafarifont&amp;#34; , &amp;#34;larkemojifont&amp;#34; , &amp;#34;larkchinesequote&amp;#34; , &amp;#34;blinkmacsystemfont&amp;#34; , &amp;#34;helvetica neue&amp;#34; , &amp;#34;arial&amp;#34; , &amp;#34;segoe ui&amp;#34; , &amp;#34;pingfang sc&amp;#34; , &amp;#34;microsoft yahei&amp;#34; , &amp;#34;hiragino sans gb&amp;#34; , sans-serif , &amp;#34;apple color emoji&amp;#34; , &amp;#34;segoe ui emoji&amp;#34; , &amp;#34;segoe ui symbol&amp;#34; , &amp;#34;noto color emoji&amp;#34;&quot;&gt;&lt;b&gt;&lt;font style=&quot;font-size: 13px&quot;&gt;视频AI&lt;/font&gt;&lt;/b&gt; - 视频云3.0&lt;/span&gt;&lt;/div&gt;&lt;div class=&quot;block-content text-element&quot;&gt;&lt;span class=&quot;&quot;&gt;&lt;div id=&quot;_ofBOjhDm&quot; class=&quot;editor-block text-block hover focused&quot;&gt;&lt;div class=&quot;block-content text-element&quot; style=&quot;font-family: &amp;#34;larkhacksafarifont&amp;#34; , &amp;#34;larkemojifont&amp;#34; , &amp;#34;larkchinesequote&amp;#34; , &amp;#34;blinkmacsystemfont&amp;#34; , &amp;#34;helvetica neue&amp;#34; , &amp;#34;arial&amp;#34; , &amp;#34;segoe ui&amp;#34; , &amp;#34;pingfang sc&amp;#34; , &amp;#34;microsoft yahei&amp;#34; , &amp;#34;hiragino sans gb&amp;#34; , sans-serif , &amp;#34;apple color emoji&amp;#34; , &amp;#34;segoe ui emoji&amp;#34; , &amp;#34;segoe ui symbol&amp;#34; , &amp;#34;noto color emoji&amp;#34; ; font-size: 12px&quot;&gt;&lt;span class=&quot;&quot;&gt;完成了视频云3.0 的上线。视频能力：实现了视频2s内打开、海康iSC平台接入。智能化能力：设备智能化率提升到60%&lt;/span&gt;&lt;/div&gt;&lt;div class=&quot;block-content text-element&quot; style=&quot;font-family: &amp;#34;larkhacksafarifont&amp;#34; , &amp;#34;larkemojifont&amp;#34; , &amp;#34;larkchinesequote&amp;#34; , &amp;#34;blinkmacsystemfont&amp;#34; , &amp;#34;helvetica neue&amp;#34; , &amp;#34;arial&amp;#34; , &amp;#34;segoe ui&amp;#34; , &amp;#34;pingfang sc&amp;#34; , &amp;#34;microsoft yahei&amp;#34; , &amp;#34;hiragino sans gb&amp;#34; , sans-serif , &amp;#34;apple color emoji&amp;#34; , &amp;#34;segoe ui emoji&amp;#34; , &amp;#34;segoe ui symbol&amp;#34; , &amp;#34;noto color emoji&amp;#34; ; font-size: 12px&quot;&gt;&lt;span class=&quot;&quot;&gt;&lt;br&gt;&lt;/span&gt;&lt;/div&gt;&lt;div class=&quot;block-content text-element&quot; style=&quot;font-family: &amp;#34;larkhacksafarifont&amp;#34; , &amp;#34;larkemojifont&amp;#34; , &amp;#34;larkchinesequote&amp;#34; , &amp;#34;blinkmacsystemfont&amp;#34; , &amp;#34;helvetica neue&amp;#34; , &amp;#34;arial&amp;#34; , &amp;#34;segoe ui&amp;#34; , &amp;#34;pingfang sc&amp;#34; , &amp;#34;microsoft yahei&amp;#34; , &amp;#34;hiragino sans gb&amp;#34; , sans-serif , &amp;#34;apple color emoji&amp;#34; , &amp;#34;segoe ui emoji&amp;#34; , &amp;#34;segoe ui symbol&amp;#34; , &amp;#34;noto color emoji&amp;#34;&quot;&gt;&lt;span class=&quot;&quot;&gt;&lt;b&gt;&lt;font style=&quot;font-size: 13px&quot;&gt;停车云 &lt;/font&gt;&lt;/b&gt;- 停车云2.1&lt;/span&gt;&lt;/div&gt;&lt;div class=&quot;block-content text-element&quot;&gt;&lt;span class=&quot;&quot;&gt;&lt;div id=&quot;_CQt7VIIn&quot; class=&quot;editor-block text-block hover focused&quot;&gt;&lt;div class=&quot;block-content text-element&quot; style=&quot;font-family: &amp;#34;larkhacksafarifont&amp;#34; , &amp;#34;larkemojifont&amp;#34; , &amp;#34;larkchinesequote&amp;#34; , &amp;#34;blinkmacsystemfont&amp;#34; , &amp;#34;helvetica neue&amp;#34; , &amp;#34;arial&amp;#34; , &amp;#34;segoe ui&amp;#34; , &amp;#34;pingfang sc&amp;#34; , &amp;#34;microsoft yahei&amp;#34; , &amp;#34;hiragino sans gb&amp;#34; , sans-serif , &amp;#34;apple color emoji&amp;#34; , &amp;#34;segoe ui emoji&amp;#34; , &amp;#34;segoe ui symbol&amp;#34; , &amp;#34;noto color emoji&amp;#34; ; font-size: 12px&quot;&gt;&lt;span class=&quot;&quot;&gt;完成了停车云2.1上线，交付了自动化对账，电银支付渠道接入，赋能C2航道&lt;/span&gt;&lt;/div&gt;&lt;div class=&quot;block-content text-element&quot; style=&quot;font-family: &amp;#34;larkhacksafarifont&amp;#34; , &amp;#34;larkemojifont&amp;#34; , &amp;#34;larkchinesequote&amp;#34; , &amp;#34;blinkmacsystemfont&amp;#34; , &amp;#34;helvetica neue&amp;#34; , &amp;#34;arial&amp;#34; , &amp;#34;segoe ui&amp;#34; , &amp;#34;pingfang sc&amp;#34; , &amp;#34;microsoft yahei&amp;#34; , &amp;#34;hiragino sans gb&amp;#34; , sans-serif , &amp;#34;apple color emoji&amp;#34; , &amp;#34;segoe ui emoji&amp;#34; , &amp;#34;segoe ui symbol&amp;#34; , &amp;#34;noto color emoji&amp;#34; ; font-size: 12px&quot;&gt;&lt;span class=&quot;&quot;&gt;&lt;br&gt;&lt;/span&gt;&lt;/div&gt;&lt;div class=&quot;block-content text-element&quot; style=&quot;font-family: &amp;#34;larkhacksafarifont&amp;#34; , &amp;#34;larkemojifont&amp;#34; , &amp;#34;larkchinesequote&amp;#34; , &amp;#34;blinkmacsystemfont&amp;#34; , &amp;#34;helvetica neue&amp;#34; , &amp;#34;arial&amp;#34; , &amp;#34;segoe ui&amp;#34; , &amp;#34;pingfang sc&amp;#34; , &amp;#34;microsoft yahei&amp;#34; , &amp;#34;hiragino sans gb&amp;#34; , sans-serif , &amp;#34;apple color emoji&amp;#34; , &amp;#34;segoe ui emoji&amp;#34; , &amp;#34;segoe ui symbol&amp;#34; , &amp;#34;noto color emoji&amp;#34;&quot;&gt;&lt;span class=&quot;&quot;&gt;&lt;b&gt;&lt;font style=&quot;font-size: 13px&quot;&gt;屏联网&lt;/font&gt;&lt;/b&gt; -&amp;nbsp;C2导视交互屏1.0&lt;/span&gt;&lt;/div&gt;&lt;div class=&quot;block-content text-element&quot;&gt;&lt;span class=&quot;&quot;&gt;&lt;font face=&quot;larkhacksafarifont, larkemojifont, larkchinesequote, blinkmacsystemfont, helvetica neue, arial, segoe ui, pingfang sc, microsoft yahei, hiragino sans gb, sans-serif, apple color emoji, segoe ui emoji, segoe ui symbol, noto color emoji&quot;&gt;完成了商业交互导视屏1.0上线&lt;/font&gt;&lt;br&gt;&lt;/span&gt;&lt;/div&gt;&lt;/div&gt;&lt;/span&gt;&lt;/div&gt;&lt;/div&gt;&lt;/span&gt;&lt;/div&gt;&lt;/div&gt;&lt;/div&gt;&lt;/div&gt;&lt;/font&gt;&lt;/span&gt;&lt;/div&gt;&lt;/div&gt;" style="text;html=1;strokeColor=none;fillColor=none;align=left;verticalAlign=top;whiteSpace=wrap;rounded=0;" vertex="1" parent="1">
          <mxGeometry x="585" y="167" width="290" height="240" as="geometry" />
        </mxCell>
        <mxCell id="127NM03Vpmz33mGlXqdl-25" value="" style="ellipse;whiteSpace=wrap;html=1;aspect=fixed;" vertex="1" parent="1">
          <mxGeometry x="565" y="465" width="10" height="10" as="geometry" />
        </mxCell>
        <mxCell id="127NM03Vpmz33mGlXqdl-26" value="" style="endArrow=none;html=1;rounded=0;entryX=0;entryY=0.5;entryDx=0;entryDy=0;" edge="1" parent="1" target="127NM03Vpmz33mGlXqdl-25">
          <mxGeometry width="50" height="50" relative="1" as="geometry">
            <mxPoint x="240" y="470" as="sourcePoint" />
            <mxPoint x="550" y="470" as="targetPoint" />
          </mxGeometry>
        </mxCell>
        <mxCell id="127NM03Vpmz33mGlXqdl-27" value="10.15" style="rounded=1;whiteSpace=wrap;html=1;" vertex="1" parent="1">
          <mxGeometry x="114" y="450" width="120" height="40" as="geometry" />
        </mxCell>
        <mxCell id="127NM03Vpmz33mGlXqdl-28" value="&lt;font&gt;&lt;b&gt;&lt;font style=&quot;font-size: 13px&quot;&gt;屏联网&lt;/font&gt;&lt;/b&gt; - &lt;span style=&quot;font-size: 12px&quot;&gt;吊挂电子屏导视&lt;/span&gt;&lt;br&gt;&lt;div id=&quot;_cfNobIR1&quot; class=&quot;editor-block text-block focused hover&quot; style=&quot;font-size: 13px&quot;&gt;&lt;div class=&quot;block-content text-element&quot;&gt;&lt;span class=&quot;&quot; style=&quot;font-size: 12px&quot;&gt;吊挂电子屏上线，交付了媒体发布平台、商业导视屏应用，赋能C2、C4、C5航道&lt;/span&gt;&lt;/div&gt;&lt;/div&gt;&lt;/font&gt;" style="text;html=1;strokeColor=none;fillColor=none;align=left;verticalAlign=top;whiteSpace=wrap;rounded=0;" vertex="1" parent="1">
          <mxGeometry x="254" y="405" width="290" height="60" as="geometry" />
        </mxCell>
        <mxCell id="127NM03Vpmz33mGlXqdl-29" value="" style="ellipse;whiteSpace=wrap;html=1;aspect=fixed;" vertex="1" parent="1">
          <mxGeometry x="565" y="525" width="10" height="10" as="geometry" />
        </mxCell>
        <mxCell id="127NM03Vpmz33mGlXqdl-30" value="" style="endArrow=none;html=1;rounded=0;entryX=0;entryY=0.5;entryDx=0;entryDy=0;" edge="1" parent="1">
          <mxGeometry width="50" height="50" relative="1" as="geometry">
            <mxPoint x="575" y="530" as="sourcePoint" />
            <mxPoint x="900" y="530" as="targetPoint" />
          </mxGeometry>
        </mxCell>
        <mxCell id="127NM03Vpmz33mGlXqdl-31" value="11.30" style="rounded=1;whiteSpace=wrap;html=1;" vertex="1" parent="1">
          <mxGeometry x="910" y="508" width="120" height="40" as="geometry" />
        </mxCell>
        <mxCell id="127NM03Vpmz33mGlXqdl-32" value="&lt;font&gt;&lt;font style=&quot;font-size: 13px&quot;&gt;&lt;b&gt;屏联网&lt;/b&gt;&lt;/font&gt;&lt;font style=&quot;font-size: 12px&quot;&gt;&amp;nbsp;-&amp;nbsp;IoT屏C4媒体发布&lt;br&gt;&lt;/font&gt;&lt;/font&gt;&lt;div id=&quot;_rWEobG3h&quot; class=&quot;editor-block text-block block-align-center hover focused&quot;&gt;&lt;div class=&quot;block-content text-element&quot;&gt;&lt;span class=&quot;&quot; style=&quot;font-family: &amp;#34;larkhacksafarifont&amp;#34; , &amp;#34;larkemojifont&amp;#34; , &amp;#34;larkchinesequote&amp;#34; , &amp;#34;blinkmacsystemfont&amp;#34; , &amp;#34;helvetica neue&amp;#34; , &amp;#34;arial&amp;#34; , &amp;#34;segoe ui&amp;#34; , &amp;#34;pingfang sc&amp;#34; , &amp;#34;microsoft yahei&amp;#34; , &amp;#34;hiragino sans gb&amp;#34; , sans-serif , &amp;#34;apple color emoji&amp;#34; , &amp;#34;segoe ui emoji&amp;#34; , &amp;#34;segoe ui symbol&amp;#34; , &amp;#34;noto color emoji&amp;#34;&quot;&gt;&lt;font&gt;&lt;div id=&quot;_omE1CHAQ&quot; class=&quot;editor-block text-block focused hover&quot;&gt;&lt;div class=&quot;block-content text-element&quot;&gt;&lt;div id=&quot;_IHgIGYwM&quot; class=&quot;editor-block text-block focused hover&quot;&gt;&lt;div class=&quot;block-content text-element&quot; style=&quot;font-size: 12px&quot;&gt;&lt;span class=&quot;&quot; style=&quot;font-family: &amp;#34;larkhacksafarifont&amp;#34; , &amp;#34;larkemojifont&amp;#34; , &amp;#34;larkchinesequote&amp;#34; , &amp;#34;blinkmacsystemfont&amp;#34; , &amp;#34;helvetica neue&amp;#34; , &amp;#34;arial&amp;#34; , &amp;#34;segoe ui&amp;#34; , &amp;#34;pingfang sc&amp;#34; , &amp;#34;microsoft yahei&amp;#34; , &amp;#34;hiragino sans gb&amp;#34; , sans-serif , &amp;#34;apple color emoji&amp;#34; , &amp;#34;segoe ui emoji&amp;#34; , &amp;#34;segoe ui symbol&amp;#34; , &amp;#34;noto color emoji&amp;#34;&quot;&gt;交付了硬分屏与软分屏功能&lt;/span&gt;&lt;/div&gt;&lt;div class=&quot;block-content text-element&quot; style=&quot;font-size: 12px&quot;&gt;&lt;span class=&quot;&quot; style=&quot;font-family: &amp;#34;larkhacksafarifont&amp;#34; , &amp;#34;larkemojifont&amp;#34; , &amp;#34;larkchinesequote&amp;#34; , &amp;#34;blinkmacsystemfont&amp;#34; , &amp;#34;helvetica neue&amp;#34; , &amp;#34;arial&amp;#34; , &amp;#34;segoe ui&amp;#34; , &amp;#34;pingfang sc&amp;#34; , &amp;#34;microsoft yahei&amp;#34; , &amp;#34;hiragino sans gb&amp;#34; , sans-serif , &amp;#34;apple color emoji&amp;#34; , &amp;#34;segoe ui emoji&amp;#34; , &amp;#34;segoe ui symbol&amp;#34; , &amp;#34;noto color emoji&amp;#34;&quot;&gt;&lt;br&gt;&lt;/span&gt;&lt;/div&gt;&lt;div class=&quot;block-content text-element&quot;&gt;&lt;span class=&quot;&quot; style=&quot;font-family: &amp;#34;larkhacksafarifont&amp;#34; , &amp;#34;larkemojifont&amp;#34; , &amp;#34;larkchinesequote&amp;#34; , &amp;#34;blinkmacsystemfont&amp;#34; , &amp;#34;helvetica neue&amp;#34; , &amp;#34;arial&amp;#34; , &amp;#34;segoe ui&amp;#34; , &amp;#34;pingfang sc&amp;#34; , &amp;#34;microsoft yahei&amp;#34; , &amp;#34;hiragino sans gb&amp;#34; , sans-serif , &amp;#34;apple color emoji&amp;#34; , &amp;#34;segoe ui emoji&amp;#34; , &amp;#34;segoe ui symbol&amp;#34; , &amp;#34;noto color emoji&amp;#34;&quot;&gt;&lt;font style=&quot;font-family: &amp;#34;helvetica&amp;#34;&quot;&gt;&lt;span style=&quot;font-size: 13px&quot;&gt;&lt;b&gt;C1营销&lt;/b&gt;&lt;/span&gt; -&amp;nbsp;自渠IOT赋能&lt;br&gt;&lt;/font&gt;&lt;div id=&quot;_rWEobG3h&quot; class=&quot;editor-block text-block block-align-center hover focused&quot; style=&quot;font-size: 12px ; font-family: &amp;#34;helvetica&amp;#34;&quot;&gt;&lt;div class=&quot;block-content text-element&quot;&gt;&lt;span class=&quot;&quot; style=&quot;font-family: &amp;#34;larkhacksafarifont&amp;#34; , &amp;#34;larkemojifont&amp;#34; , &amp;#34;larkchinesequote&amp;#34; , &amp;#34;blinkmacsystemfont&amp;#34; , &amp;#34;helvetica neue&amp;#34; , &amp;#34;arial&amp;#34; , &amp;#34;segoe ui&amp;#34; , &amp;#34;pingfang sc&amp;#34; , &amp;#34;microsoft yahei&amp;#34; , &amp;#34;hiragino sans gb&amp;#34; , sans-serif , &amp;#34;apple color emoji&amp;#34; , &amp;#34;segoe ui emoji&amp;#34; , &amp;#34;segoe ui symbol&amp;#34; , &amp;#34;noto color emoji&amp;#34;&quot;&gt;&lt;div id=&quot;_omE1CHAQ&quot; class=&quot;editor-block text-block focused hover&quot;&gt;&lt;div class=&quot;block-content text-element&quot;&gt;&lt;div id=&quot;_IHgIGYwM&quot; class=&quot;editor-block text-block focused hover&quot;&gt;&lt;div class=&quot;block-content text-element&quot;&gt;&lt;span class=&quot;&quot;&gt;完成了3S防飞单特征值方案的上线，全部符合个人隐私法律法规，赋能C1航道&lt;/span&gt;&lt;/div&gt;&lt;/div&gt;&lt;/div&gt;&lt;/div&gt;&lt;/span&gt;&lt;/div&gt;&lt;/div&gt;&lt;/span&gt;&lt;/div&gt;&lt;/div&gt;&lt;/div&gt;&lt;/div&gt;&lt;/font&gt;&lt;/span&gt;&lt;/div&gt;&lt;/div&gt;" style="text;html=1;strokeColor=none;fillColor=none;align=left;verticalAlign=top;whiteSpace=wrap;rounded=0;" vertex="1" parent="1">
          <mxGeometry x="585" y="428" width="290" height="95" as="geometry" />
        </mxCell>
        <mxCell id="127NM03Vpmz33mGlXqdl-33" value="" style="ellipse;whiteSpace=wrap;html=1;aspect=fixed;" vertex="1" parent="1">
          <mxGeometry x="565" y="1041" width="10" height="10" as="geometry" />
        </mxCell>
        <mxCell id="127NM03Vpmz33mGlXqdl-34" value="" style="endArrow=none;html=1;rounded=0;entryX=0;entryY=0.5;entryDx=0;entryDy=0;" edge="1" parent="1" target="127NM03Vpmz33mGlXqdl-33">
          <mxGeometry width="50" height="50" relative="1" as="geometry">
            <mxPoint x="240" y="1046" as="sourcePoint" />
            <mxPoint x="550" y="1046" as="targetPoint" />
          </mxGeometry>
        </mxCell>
        <mxCell id="127NM03Vpmz33mGlXqdl-35" value="12.30" style="rounded=1;whiteSpace=wrap;html=1;" vertex="1" parent="1">
          <mxGeometry x="114" y="1028" width="120" height="40" as="geometry" />
        </mxCell>
        <mxCell id="127NM03Vpmz33mGlXqdl-36" value="&lt;font&gt;&lt;span style=&quot;font-size: 13px&quot;&gt;&lt;b&gt;IBMS&lt;/b&gt;&lt;/span&gt; - IBMS-X2.0&lt;br&gt;&lt;div id=&quot;_cfNobIR1&quot; class=&quot;editor-block text-block focused hover&quot;&gt;&lt;div class=&quot;block-content text-element&quot; style=&quot;font-size: 13px&quot;&gt;&lt;span class=&quot;&quot; style=&quot;font-size: 12px&quot;&gt;完成了看板、新业务系统主数据对接、MDM主数据对接、RBA系统切换等功能，赋能C3、C4航道&lt;/span&gt;&lt;/div&gt;&lt;div class=&quot;block-content text-element&quot; style=&quot;font-size: 13px&quot;&gt;&lt;span class=&quot;&quot; style=&quot;font-size: 12px&quot;&gt;&lt;br&gt;&lt;/span&gt;&lt;/div&gt;&lt;div class=&quot;block-content text-element&quot;&gt;&lt;span class=&quot;&quot; style=&quot;font-size: 13px&quot;&gt;&lt;b&gt;指挥中心&lt;/b&gt;&lt;/span&gt;&lt;span class=&quot;&quot;&gt; - C3指挥中心IOT赋能（巡检）平台&lt;br&gt;&lt;div id=&quot;_cfNobIR1&quot; class=&quot;editor-block text-block focused hover&quot;&gt;&lt;div class=&quot;block-content text-element&quot; style=&quot;font-size: 13px&quot;&gt;&lt;span class=&quot;&quot; style=&quot;font-size: 12px&quot;&gt;完成了C3指挥中心IOT赋能(巡检)平台上线，交付了巡检任务创建、实时巡检和打分、巡检报告生成、整改项下发和复核，赋能C3航道&lt;/span&gt;&lt;/div&gt;&lt;div class=&quot;block-content text-element&quot; style=&quot;font-size: 13px&quot;&gt;&lt;span class=&quot;&quot; style=&quot;font-size: 12px&quot;&gt;&lt;br&gt;&lt;/span&gt;&lt;/div&gt;&lt;div class=&quot;block-content text-element&quot;&gt;&lt;span class=&quot;&quot; style=&quot;font-size: 13px&quot;&gt;&lt;b&gt;停车云&lt;/b&gt;&lt;/span&gt;&lt;span class=&quot;&quot;&gt; - 停车云2.2&lt;br&gt;&lt;div id=&quot;_cfNobIR1&quot; class=&quot;editor-block text-block focused hover&quot;&gt;&lt;div class=&quot;block-content text-element&quot; style=&quot;font-size: 13px&quot;&gt;&lt;span class=&quot;&quot; style=&quot;font-size: 12px&quot;&gt;完成了停车云2.2上线，交付了260个零星车场接入，珑珠宝会员贡献，自研场端支持双标计费、多车多位、场型扩展等优化升级，停车云核心服务加固优化，赋能C4航道，在线检测机制落地，目前提供实时在线&amp;amp;心跳检测两种机制&lt;/span&gt;&lt;/div&gt;&lt;div class=&quot;block-content text-element&quot; style=&quot;font-size: 13px&quot;&gt;&lt;span class=&quot;&quot; style=&quot;font-size: 12px&quot;&gt;&lt;br&gt;&lt;/span&gt;&lt;/div&gt;&lt;div class=&quot;block-content text-element&quot;&gt;&lt;span class=&quot;&quot; style=&quot;font-size: 13px&quot;&gt;&lt;b&gt;设备管理平台&lt;/b&gt;&lt;/span&gt;&lt;span class=&quot;&quot;&gt;&lt;br&gt;&lt;div id=&quot;_cfNobIR1&quot; class=&quot;editor-block text-block focused hover&quot;&gt;&lt;div class=&quot;block-content text-element&quot; style=&quot;font-size: 13px&quot;&gt;&lt;div class=&quot;block-content text-element&quot;&gt;完成设备管理平台框架搭建，服务网桥开发、IDM/AM/MDM对接并上线&lt;/div&gt;&lt;div class=&quot;block-content text-element&quot;&gt;中心公共功能建设，包括OTA、物模型等能力的建设&lt;/div&gt;&lt;div class=&quot;block-content text-element&quot;&gt;完成在线检测机制落地，目前提供实时在线&amp;amp;心跳检测两种机制&lt;/div&gt;&lt;/div&gt;&lt;div class=&quot;block-content text-element&quot; style=&quot;font-size: 13px&quot;&gt;&lt;span class=&quot;&quot; style=&quot;font-size: 12px&quot;&gt;&lt;br&gt;&lt;/span&gt;&lt;/div&gt;&lt;div class=&quot;block-content text-element&quot;&gt;&lt;span class=&quot;&quot; style=&quot;font-size: 13px&quot;&gt;&lt;b&gt;C5&lt;/b&gt;&lt;/span&gt;&lt;span class=&quot;&quot;&gt; - C5-IOT赋能1.0&lt;br&gt;&lt;div id=&quot;_cfNobIR1&quot; class=&quot;editor-block text-block focused hover&quot;&gt;&lt;div class=&quot;block-content text-element&quot;&gt;完成了行程量Android SDK的开发，具备了上线的能力，计划2022.01进行试点&lt;br&gt;&lt;/div&gt;&lt;div class=&quot;block-content text-element&quot; style=&quot;font-size: 13px&quot;&gt;&lt;span class=&quot;&quot; style=&quot;font-size: 12px&quot;&gt;&lt;br&gt;&lt;/span&gt;&lt;/div&gt;&lt;div class=&quot;block-content text-element&quot;&gt;&lt;span class=&quot;&quot;&gt;&lt;span style=&quot;font-size: 13px&quot;&gt;&lt;b&gt;C6&lt;/b&gt;&lt;/span&gt;&amp;nbsp;- C6施工管理_IoT赋能&lt;br&gt;&lt;div id=&quot;_cfNobIR1&quot; class=&quot;editor-block text-block focused hover&quot;&gt;&lt;div class=&quot;block-content text-element&quot;&gt;完成了C6 IOT施工管理项目的上线，交付了考勤机设备管理、云端人脸打卡等能力，赋能C6航道&lt;br&gt;&lt;/div&gt;&lt;div class=&quot;block-content text-element&quot;&gt;&lt;br&gt;&lt;/div&gt;&lt;div class=&quot;block-content text-element&quot;&gt;&lt;span class=&quot;&quot; style=&quot;font-size: 13px&quot;&gt;&lt;b&gt;C3&lt;/b&gt;&lt;/span&gt;&lt;span class=&quot;&quot; style=&quot;font-size: 12px&quot;&gt; - 冠寓IoT设备管理平台&lt;br&gt;&lt;div id=&quot;_cfNobIR1&quot; class=&quot;editor-block text-block focused hover&quot; style=&quot;font-size: 13px&quot;&gt;&lt;div class=&quot;block-content text-element&quot;&gt;&lt;span class=&quot;&quot; style=&quot;font-size: 12px&quot;&gt;完成了冠寓IoT设备管理平台-金圆轻资产项目的对接,避免C3二次智能化设备的投入&lt;/span&gt;&lt;/div&gt;&lt;/div&gt;&lt;/span&gt;&lt;/div&gt;&lt;/div&gt;&lt;/span&gt;&lt;/div&gt;&lt;/div&gt;&lt;/span&gt;&lt;/div&gt;&lt;/div&gt;&lt;/span&gt;&lt;/div&gt;&lt;/div&gt;&lt;/span&gt;&lt;/div&gt;&lt;/div&gt;&lt;/span&gt;&lt;/div&gt;&lt;div class=&quot;block-content text-element&quot; style=&quot;font-size: 13px&quot;&gt;&lt;span class=&quot;&quot; style=&quot;font-size: 12px&quot;&gt;&lt;br&gt;&lt;/span&gt;&lt;/div&gt;&lt;div class=&quot;block-content text-element&quot; style=&quot;font-size: 13px&quot;&gt;&lt;span class=&quot;&quot; style=&quot;font-size: 12px&quot;&gt;&lt;br&gt;&lt;/span&gt;&lt;/div&gt;&lt;/div&gt;&lt;/font&gt;" style="text;html=1;strokeColor=none;fillColor=none;align=left;verticalAlign=top;whiteSpace=wrap;rounded=0;" vertex="1" parent="1">
          <mxGeometry x="254" y="490" width="290" height="400" as="geometry" />
        </mxCell>
      </root>
    </mxGraphModel>
  </diagram>
</mxfile>
